<svg class="main-svg" xmlns="http://www.w3.org/2000/svg" xmlns:xlink="http://www.w3.org/1999/xlink" width="2200" height="546" style="" viewBox="0 0 1100 273"><rect x="0" y="0" width="1100" height="273" style="fill: rgb(0, 0, 0); fill-opacity: 0;"/><defs id="defs-6a954e"><g class="clips"><clipPath id="clip6a954exyplot" class="plotclip"><rect width="1005" height="42.230769230769226"/></clipPath><clipPath id="clip6a954ex2y2plot" class="plotclip"><rect width="1005" height="42.230769230769226"/></clipPath><clipPath id="clip6a954ex3y3plot" class="plotclip"><rect width="1005" height="42.230769230769226"/></clipPath><clipPath class="axesclip" id="clip6a954ex"><rect x="80" y="0" width="1005" height="273"/></clipPath><clipPath class="axesclip" id="clip6a954ey"><rect x="0" y="50.00000000000002" width="1100" height="42.230769230769226"/></clipPath><clipPath class="axesclip" id="clip6a954exy"><rect x="80" y="50.00000000000002" width="1005" height="42.230769230769226"/></clipPath><clipPath class="axesclip" id="clip6a954ey2"><rect x="0" y="120.3846153846154" width="1100" height="42.230769230769226"/></clipPath><clipPath class="axesclip" id="clip6a954exy2"><rect x="80" y="120.3846153846154" width="1005" height="42.230769230769226"/></clipPath><clipPath class="axesclip" id="clip6a954ey3"><rect x="0" y="190.76923076923077" width="1100" height="42.230769230769226"/></clipPath><clipPath class="axesclip" id="clip6a954exy3"><rect x="80" y="190.76923076923077" width="1005" height="42.230769230769226"/></clipPath><clipPath class="axesclip" id="clip6a954ex2"><rect x="80" y="0" width="1005" height="273"/></clipPath><clipPath class="axesclip" id="clip6a954ex2y"><rect x="80" y="50.00000000000002" width="1005" height="42.230769230769226"/></clipPath><clipPath class="axesclip" id="clip6a954ex2y2"><rect x="80" y="120.3846153846154" width="1005" height="42.230769230769226"/></clipPath><clipPath class="axesclip" id="clip6a954ex2y3"><rect x="80" y="190.76923076923077" width="1005" height="42.230769230769226"/></clipPath><clipPath class="axesclip" id="clip6a954ex3"><rect x="80" y="0" width="1005" height="273"/></clipPath><clipPath class="axesclip" id="clip6a954ex3y"><rect x="80" y="50.00000000000002" width="1005" height="42.230769230769226"/></clipPath><clipPath class="axesclip" id="clip6a954ex3y2"><rect x="80" y="120.3846153846154" width="1005" height="42.230769230769226"/></clipPath><clipPath class="axesclip" id="clip6a954ex3y3"><rect x="80" y="190.76923076923077" width="1005" height="42.230769230769226"/></clipPath></g><g class="gradients"/><g class="patterns"/></defs><g class="bglayer"><rect class="bg" x="80" y="50.00000000000002" width="1005" height="42.230769230769226" style="fill: rgb(0, 0, 0); fill-opacity: 0; stroke-width: 0;"/><rect class="bg" x="80" y="120.3846153846154" width="1005" height="42.230769230769226" style="fill: rgb(0, 0, 0); fill-opacity: 0; stroke-width: 0;"/><rect class="bg" x="80" y="190.76923076923077" width="1005" height="42.230769230769226" style="fill: rgb(0, 0, 0); fill-opacity: 0; stroke-width: 0;"/></g><g class="layer-below"><g class="imagelayer"/><g class="shapelayer"/></g><g class="cartesianlayer"><g class="subplot xy"><g class="layer-subplot"><g class="shapelayer"/><g class="imagelayer"/></g><g class="minor-gridlayer"><g class="x"/><g class="y"/></g><g class="gridlayer"><g class="x"><path class="xgrid crisp" transform="translate(188.62,0)" d="M0,50.00000000000002v42.230769230769226" style="stroke: rgb(0, 0, 0); stroke-opacity: 0.1; stroke-width: 1px;"/><path class="xgrid crisp" transform="translate(292.27,0)" d="M0,50.00000000000002v42.230769230769226" style="stroke: rgb(0, 0, 0); stroke-opacity: 0.1; stroke-width: 1px;"/><path class="xgrid crisp" transform="translate(395.92,0)" d="M0,50.00000000000002v42.230769230769226" style="stroke: rgb(0, 0, 0); stroke-opacity: 0.1; stroke-width: 1px;"/><path class="xgrid crisp" transform="translate(499.57,0)" d="M0,50.00000000000002v42.230769230769226" style="stroke: rgb(0, 0, 0); stroke-opacity: 0.1; stroke-width: 1px;"/><path class="xgrid crisp" transform="translate(603.22,0)" d="M0,50.00000000000002v42.230769230769226" style="stroke: rgb(0, 0, 0); stroke-opacity: 0.1; stroke-width: 1px;"/><path class="xgrid crisp" transform="translate(706.87,0)" d="M0,50.00000000000002v42.230769230769226" style="stroke: rgb(0, 0, 0); stroke-opacity: 0.1; stroke-width: 1px;"/><path class="xgrid crisp" transform="translate(810.51,0)" d="M0,50.00000000000002v42.230769230769226" style="stroke: rgb(0, 0, 0); stroke-opacity: 0.1; stroke-width: 1px;"/><path class="xgrid crisp" transform="translate(914.16,0)" d="M0,50.00000000000002v42.230769230769226" style="stroke: rgb(0, 0, 0); stroke-opacity: 0.1; stroke-width: 1px;"/><path class="xgrid crisp" transform="translate(1017.81,0)" d="M0,50.00000000000002v42.230769230769226" style="stroke: rgb(0, 0, 0); stroke-opacity: 0.1; stroke-width: 1px;"/></g><g class="y"><path class="ygrid crisp" transform="translate(0,71.12000000000002)" d="M80,0h1005" style="stroke: rgb(0, 0, 0); stroke-opacity: 0.1; stroke-width: 1px;"/></g></g><g class="zerolinelayer"><path class="xzl zl crisp" transform="translate(84.98,0)" d="M0,50.00000000000002v42.230769230769226" style="stroke: rgb(0, 0, 0); stroke-opacity: 0.1; stroke-width: 2px;"/></g><path class="xlines-below"/><path class="ylines-below"/><g class="overlines-below"/><g class="xaxislayer-below"/><g class="yaxislayer-below"/><g class="overaxes-below"/><g class="plot" transform="translate(80,50.00000000000002)" clip-path="url(#clip6a954exyplot)"><g class="violinlayer mlayer"><g class="trace violins" style="opacity: 0.5;"><path class="violin" d="M410.54,20.46Q429.41,20.08 438.85,19.78C448.29,19.48 457.73,19.13 467.16,18.67C476.6,18.21 486.03,17.66 495.46,17.03C504.9,16.4 514.34,15.64 523.77,14.87C533.21,14.09 542.64,13.21 552.08,12.38C561.52,11.55 570.95,10.65 580.39,9.89C589.82,9.13 599.26,8.38 608.7,7.83C618.13,7.28 627.57,6.83 637.01,6.58C646.44,6.33 655.88,6.25 665.32,6.33C674.75,6.41 684.19,6.71 693.62,7.08C703.06,7.45 712.49,8.01 721.93,8.56C731.37,9.11 740.8,9.78 750.24,10.36C759.68,10.94 769.11,11.57 778.55,12.05C787.98,12.52 797.42,12.94 806.86,13.21C816.29,13.48 825.73,13.63 835.17,13.66C844.6,13.69 854.04,13.56 863.47,13.42C872.91,13.27 882.34,13 891.78,12.79C901.22,12.58 910.65,12.31 920.09,12.17C929.53,12.03 938.96,11.93 948.4,11.97C957.84,12.01 967.27,12.17 976.71,12.43C986.15,12.69 995.59,13.09 1005.02,13.53C1014.46,13.97 1023.89,14.53 1033.32,15.06C1042.76,15.59 1052.19,16.18 1061.63,16.7C1071.07,17.22 1080.5,17.75 1089.94,18.19C1099.38,18.63 1108.81,19.02 1118.25,19.35C1127.69,19.68 1137.12,19.94 1146.56,20.15Q1156,20.36 1174.87,20.63L1174.87,21.6Q1156,21.88 1146.56,22.09C1137.12,22.3 1127.69,22.56 1118.25,22.88C1108.81,23.21 1099.38,23.6 1089.94,24.04C1080.5,24.48 1071.07,25.01 1061.63,25.53C1052.19,26.05 1042.76,26.64 1033.32,27.17C1023.89,27.7 1014.46,28.26 1005.02,28.7C995.59,29.14 986.15,29.54 976.71,29.8C967.27,30.06 957.84,30.22 948.4,30.26C938.96,30.3 929.53,30.2 920.09,30.06C910.65,29.92 901.22,29.65 891.78,29.44C882.34,29.23 872.91,28.96 863.47,28.81C854.04,28.67 844.6,28.54 835.17,28.57C825.73,28.6 816.29,28.75 806.86,29.02C797.42,29.29 787.98,29.72 778.55,30.19C769.11,30.67 759.68,31.29 750.24,31.87C740.8,32.45 731.37,33.12 721.93,33.67C712.49,34.22 703.06,34.78 693.62,35.15C684.19,35.52 674.75,35.82 665.32,35.9C655.88,35.98 646.44,35.9 637.01,35.65C627.57,35.4 618.13,34.95 608.7,34.4C599.26,33.85 589.82,33.1 580.39,32.34C570.95,31.58 561.52,30.68 552.08,29.85C542.64,29.02 533.21,28.14 523.77,27.36C514.34,26.59 504.9,25.83 495.46,25.2C486.03,24.57 476.6,24.02 467.16,23.56C457.73,23.1 448.29,22.75 438.85,22.45Q429.41,22.15 410.54,21.77Z" style="vector-effect: none; stroke-width: 2px; stroke: rgb(128, 128, 128); stroke-opacity: 1; fill: rgb(128, 128, 128); fill-opacity: 1;"/><path class="box" d="M709.78,24.81V17.42M626.87,24.81V17.42H927.45V24.81ZM626.87,21.12H585.41M927.45,21.12H1000" style="vector-effect: non-scaling-stroke; stroke-width: 2px; stroke: rgb(128, 128, 128); stroke-opacity: 1; fill: rgb(128, 128, 128); fill-opacity: 1;"/><path class="mean" d="M762.65,24.81V17.42" style="fill: none; vector-effect: non-scaling-stroke; stroke-width: 2px; stroke-dasharray: 4px, 2px; stroke: rgb(128, 128, 128); stroke-opacity: 1;"/></g></g><g class="scatterlayer mlayer"><g class="trace scatter tracef11578" style="stroke-miterlimit: 2; opacity: 1;"><g class="fills"/><g class="errorbars"/><g class="lines"/><g class="points"><path class="point" transform="translate(1000,21.12)" d="M2,0A2,2 0 1,1 0,-2A2,2 0 0,1 2,0Z" style="opacity: 1; stroke-width: 0px; fill: rgb(11, 121, 230); fill-opacity: 1;"/></g><g class="text"/></g><g class="trace scatter trace8b8481" style="stroke-miterlimit: 2; opacity: 1;"><g class="fills"/><g class="errorbars"/><g class="lines"/><g class="points"><path class="point" transform="translate(979.27,21.12)" d="M2,0A2,2 0 1,1 0,-2A2,2 0 0,1 2,0Z" style="opacity: 1; stroke-width: 0px; fill: rgb(11, 121, 230); fill-opacity: 1;"/></g><g class="text"/></g><g class="trace scatter trace79f064" style="stroke-miterlimit: 2; opacity: 1;"><g class="fills"/><g class="errorbars"/><g class="lines"/><g class="points"><path class="point" transform="translate(958.54,21.12)" d="M2,0A2,2 0 1,1 0,-2A2,2 0 0,1 2,0Z" style="opacity: 1; stroke-width: 0px; fill: rgb(11, 121, 230); fill-opacity: 1;"/></g><g class="text"/></g><g class="trace scatter traceee9ec2" style="stroke-miterlimit: 2; opacity: 1;"><g class="fills"/><g class="errorbars"/><g class="lines"/><g class="points"><path class="point" transform="translate(958.54,21.12)" d="M2,0A2,2 0 1,1 0,-2A2,2 0 0,1 2,0Z" style="opacity: 1; stroke-width: 0px; fill: rgb(11, 121, 230); fill-opacity: 1;"/></g><g class="text"/></g><g class="trace scatter trace214464" style="stroke-miterlimit: 2; opacity: 1;"><g class="fills"/><g class="errorbars"/><g class="lines"/><g class="points"><path class="point" transform="translate(937.81,21.12)" d="M2,0A2,2 0 1,1 0,-2A2,2 0 0,1 2,0Z" style="opacity: 1; stroke-width: 0px; fill: rgb(11, 121, 230); fill-opacity: 1;"/></g><g class="text"/></g><g class="trace scatter tracecb7385" style="stroke-miterlimit: 2; opacity: 1;"><g class="fills"/><g class="errorbars"/><g class="lines"/><g class="points"><path class="point" transform="translate(917.08,21.12)" d="M2,0A2,2 0 1,1 0,-2A2,2 0 0,1 2,0Z" style="opacity: 1; stroke-width: 0px; fill: rgb(11, 121, 230); fill-opacity: 1;"/></g><g class="text"/></g><g class="trace scatter trace55a155" style="stroke-miterlimit: 2; opacity: 1;"><g class="fills"/><g class="errorbars"/><g class="lines"/><g class="points"><path class="point" transform="translate(917.08,21.12)" d="M2,0A2,2 0 1,1 0,-2A2,2 0 0,1 2,0Z" style="opacity: 1; stroke-width: 0px; fill: rgb(11, 121, 230); fill-opacity: 1;"/></g><g class="text"/></g><g class="trace scatter trace94e096" style="stroke-miterlimit: 2; opacity: 1;"><g class="fills"/><g class="errorbars"/><g class="lines"/><g class="points"><path class="point" transform="translate(751.24,21.12)" d="M2,0A2,2 0 1,1 0,-2A2,2 0 0,1 2,0Z" style="opacity: 1; stroke-width: 0px; fill: rgb(11, 121, 230); fill-opacity: 1;"/></g><g class="text"/></g><g class="trace scatter trace798053" style="stroke-miterlimit: 2; opacity: 1;"><g class="fills"/><g class="errorbars"/><g class="lines"/><g class="points"><path class="point" transform="translate(730.51,21.12)" d="M2,0A2,2 0 1,1 0,-2A2,2 0 0,1 2,0Z" style="opacity: 1; stroke-width: 0px; fill: rgb(11, 121, 230); fill-opacity: 1;"/></g><g class="text"/></g><g class="trace scatter trace2b9ef9" style="stroke-miterlimit: 2; opacity: 1;"><g class="fills"/><g class="errorbars"/><g class="lines"/><g class="points"><path class="point" transform="translate(730.51,21.12)" d="M2,0A2,2 0 1,1 0,-2A2,2 0 0,1 2,0Z" style="opacity: 1; stroke-width: 0px; fill: rgb(11, 121, 230); fill-opacity: 1;"/></g><g class="text"/></g><g class="trace scatter trace1aa0e8" style="stroke-miterlimit: 2; opacity: 1;"><g class="fills"/><g class="errorbars"/><g class="lines"/><g class="points"><path class="point" transform="translate(689.05,21.12)" d="M2,0A2,2 0 1,1 0,-2A2,2 0 0,1 2,0Z" style="opacity: 1; stroke-width: 0px; fill: rgb(11, 121, 230); fill-opacity: 1;"/></g><g class="text"/></g><g class="trace scatter trace4dbddf" style="stroke-miterlimit: 2; opacity: 1;"><g class="fills"/><g class="errorbars"/><g class="lines"/><g class="points"><path class="point" transform="translate(689.05,21.12)" d="M2,0A2,2 0 1,1 0,-2A2,2 0 0,1 2,0Z" style="opacity: 1; stroke-width: 0px; fill: rgb(11, 121, 230); fill-opacity: 1;"/></g><g class="text"/></g><g class="trace scatter trace4ef67a" style="stroke-miterlimit: 2; opacity: 1;"><g class="fills"/><g class="errorbars"/><g class="lines"/><g class="points"><path class="point" transform="translate(668.33,21.12)" d="M2,0A2,2 0 1,1 0,-2A2,2 0 0,1 2,0Z" style="opacity: 1; stroke-width: 0px; fill: rgb(11, 121, 230); fill-opacity: 1;"/></g><g class="text"/></g><g class="trace scatter trace8264e5" style="stroke-miterlimit: 2; opacity: 1;"><g class="fills"/><g class="errorbars"/><g class="lines"/><g class="points"><path class="point" transform="translate(647.6,21.12)" d="M2,0A2,2 0 1,1 0,-2A2,2 0 0,1 2,0Z" style="opacity: 1; stroke-width: 0px; fill: rgb(11, 121, 230); fill-opacity: 1;"/></g><g class="text"/></g><g class="trace scatter tracef1195d" style="stroke-miterlimit: 2; opacity: 1;"><g class="fills"/><g class="errorbars"/><g class="lines"/><g class="points"><path class="point" transform="translate(626.87,21.12)" d="M2,0A2,2 0 1,1 0,-2A2,2 0 0,1 2,0Z" style="opacity: 1; stroke-width: 0px; fill: rgb(11, 121, 230); fill-opacity: 1;"/></g><g class="text"/></g><g class="trace scatter traced60544" style="stroke-miterlimit: 2; opacity: 1;"><g class="fills"/><g class="errorbars"/><g class="lines"/><g class="points"><path class="point" transform="translate(626.87,21.12)" d="M2,0A2,2 0 1,1 0,-2A2,2 0 0,1 2,0Z" style="opacity: 1; stroke-width: 0px; fill: rgb(11, 121, 230); fill-opacity: 1;"/></g><g class="text"/></g><g class="trace scatter tracee04181" style="stroke-miterlimit: 2; opacity: 1;"><g class="fills"/><g class="errorbars"/><g class="lines"/><g class="points"><path class="point" transform="translate(626.87,21.12)" d="M2,0A2,2 0 1,1 0,-2A2,2 0 0,1 2,0Z" style="opacity: 1; stroke-width: 0px; fill: rgb(11, 121, 230); fill-opacity: 1;"/></g><g class="text"/></g><g class="trace scatter trace8ae189" style="stroke-miterlimit: 2; opacity: 1;"><g class="fills"/><g class="errorbars"/><g class="lines"/><g class="points"><path class="point" transform="translate(606.14,21.12)" d="M2,0A2,2 0 1,1 0,-2A2,2 0 0,1 2,0Z" style="opacity: 1; stroke-width: 0px; fill: rgb(11, 121, 230); fill-opacity: 1;"/></g><g class="text"/></g><g class="trace scatter tracea3662d" style="stroke-miterlimit: 2; opacity: 1;"><g class="fills"/><g class="errorbars"/><g class="lines"/><g class="points"><path class="point" transform="translate(606.14,21.12)" d="M2,0A2,2 0 1,1 0,-2A2,2 0 0,1 2,0Z" style="opacity: 1; stroke-width: 0px; fill: rgb(11, 121, 230); fill-opacity: 1;"/></g><g class="text"/></g><g class="trace scatter trace248967" style="stroke-miterlimit: 2; opacity: 1;"><g class="fills"/><g class="errorbars"/><g class="lines"/><g class="points"><path class="point" transform="translate(585.41,21.12)" d="M2,0A2,2 0 1,1 0,-2A2,2 0 0,1 2,0Z" style="opacity: 1; stroke-width: 0px; fill: rgb(11, 121, 230); fill-opacity: 1;"/></g><g class="text"/></g></g></g><g class="overplot"/><path class="xlines-above crisp" d="M0,0" style="fill: none;"/><path class="ylines-above crisp" d="M0,0" style="fill: none;"/><g class="overlines-above"/><g class="xaxislayer-above"><g class="xtick"><text text-anchor="middle" x="0" y="102.23076923076925" transform="translate(84.98,0)" style="font-family: 'Lucida Grande', 'Open Sans', verdana, arial, sans-serif; font-size: 9px; fill: rgb(0, 0, 0); fill-opacity: 0.5; white-space: pre; opacity: 1;">0</text></g><g class="xtick"><text text-anchor="middle" x="0" y="102.23076923076925" style="font-family: 'Lucida Grande', 'Open Sans', verdana, arial, sans-serif; font-size: 9px; fill: rgb(0, 0, 0); fill-opacity: 0.5; white-space: pre; opacity: 1;" transform="translate(188.62,0)">5</text></g><g class="xtick"><text text-anchor="middle" x="0" y="102.23076923076925" style="font-family: 'Lucida Grande', 'Open Sans', verdana, arial, sans-serif; font-size: 9px; fill: rgb(0, 0, 0); fill-opacity: 0.5; white-space: pre; opacity: 1;" transform="translate(292.27,0)">10</text></g><g class="xtick"><text text-anchor="middle" x="0" y="102.23076923076925" style="font-family: 'Lucida Grande', 'Open Sans', verdana, arial, sans-serif; font-size: 9px; fill: rgb(0, 0, 0); fill-opacity: 0.5; white-space: pre; opacity: 1;" transform="translate(395.92,0)">15</text></g><g class="xtick"><text text-anchor="middle" x="0" y="102.23076923076925" style="font-family: 'Lucida Grande', 'Open Sans', verdana, arial, sans-serif; font-size: 9px; fill: rgb(0, 0, 0); fill-opacity: 0.5; white-space: pre; opacity: 1;" transform="translate(499.57,0)">20</text></g><g class="xtick"><text text-anchor="middle" x="0" y="102.23076923076925" style="font-family: 'Lucida Grande', 'Open Sans', verdana, arial, sans-serif; font-size: 9px; fill: rgb(0, 0, 0); fill-opacity: 0.5; white-space: pre; opacity: 1;" transform="translate(603.22,0)">25</text></g><g class="xtick"><text text-anchor="middle" x="0" y="102.23076923076925" style="font-family: 'Lucida Grande', 'Open Sans', verdana, arial, sans-serif; font-size: 9px; fill: rgb(0, 0, 0); fill-opacity: 0.5; white-space: pre; opacity: 1;" transform="translate(706.87,0)">30</text></g><g class="xtick"><text text-anchor="middle" x="0" y="102.23076923076925" style="font-family: 'Lucida Grande', 'Open Sans', verdana, arial, sans-serif; font-size: 9px; fill: rgb(0, 0, 0); fill-opacity: 0.5; white-space: pre; opacity: 1;" transform="translate(810.51,0)">35</text></g><g class="xtick"><text text-anchor="middle" x="0" y="102.23076923076925" style="font-family: 'Lucida Grande', 'Open Sans', verdana, arial, sans-serif; font-size: 9px; fill: rgb(0, 0, 0); fill-opacity: 0.5; white-space: pre; opacity: 1;" transform="translate(914.16,0)">40</text></g><g class="xtick"><text text-anchor="middle" x="0" y="102.23076923076925" style="font-family: 'Lucida Grande', 'Open Sans', verdana, arial, sans-serif; font-size: 9px; fill: rgb(0, 0, 0); fill-opacity: 0.5; white-space: pre; opacity: 1;" transform="translate(1017.81,0)">45</text></g></g><g class="yaxislayer-above"><g class="ytick"><text text-anchor="end" x="79" y="3.15" transform="translate(0,71.12000000000002)" style="font-family: 'Lucida Grande', 'Open Sans', verdana, arial, sans-serif; font-size: 9px; fill: rgb(0, 0, 0); fill-opacity: 0.5; white-space: pre; opacity: 1;">Samples  </text></g></g><g class="overaxes-above"/></g><g class="subplot x2y2"><g class="layer-subplot"><g class="shapelayer"/><g class="imagelayer"/></g><g class="minor-gridlayer"><g class="x2"/><g class="y2"/></g><g class="gridlayer"><g class="x2"><path class="x2grid crisp" transform="translate(238.15,0)" d="M0,120.3846153846154v42.230769230769226" style="stroke: rgb(0, 0, 0); stroke-opacity: 0.1; stroke-width: 1px;"/><path class="x2grid crisp" transform="translate(391.32,0)" d="M0,120.3846153846154v42.230769230769226" style="stroke: rgb(0, 0, 0); stroke-opacity: 0.1; stroke-width: 1px;"/><path class="x2grid crisp" transform="translate(544.49,0)" d="M0,120.3846153846154v42.230769230769226" style="stroke: rgb(0, 0, 0); stroke-opacity: 0.1; stroke-width: 1px;"/><path class="x2grid crisp" transform="translate(697.67,0)" d="M0,120.3846153846154v42.230769230769226" style="stroke: rgb(0, 0, 0); stroke-opacity: 0.1; stroke-width: 1px;"/><path class="x2grid crisp" transform="translate(850.84,0)" d="M0,120.3846153846154v42.230769230769226" style="stroke: rgb(0, 0, 0); stroke-opacity: 0.1; stroke-width: 1px;"/><path class="x2grid crisp" transform="translate(1004.01,0)" d="M0,120.3846153846154v42.230769230769226" style="stroke: rgb(0, 0, 0); stroke-opacity: 0.1; stroke-width: 1px;"/></g><g class="y2"><path class="y2grid crisp" transform="translate(0,141.5046153846154)" d="M80,0h1005" style="stroke: rgb(0, 0, 0); stroke-opacity: 0.1; stroke-width: 1px;"/></g></g><g class="zerolinelayer"><path class="x2zl zl crisp" transform="translate(84.98,0)" d="M0,120.3846153846154v42.230769230769226" style="stroke: rgb(0, 0, 0); stroke-opacity: 0.1; stroke-width: 2px;"/></g><path class="xlines-below"/><path class="ylines-below"/><g class="overlines-below"/><g class="xaxislayer-below"/><g class="yaxislayer-below"/><g class="overaxes-below"/><g class="plot" transform="translate(80,120.3846153846154)" clip-path="url(#clip6a954ex2y2plot)"><g class="violinlayer mlayer"><g class="trace violins" style="opacity: 0.5;"><path class="violin" d="M-181.32,20.27Q-159.97,19.82 -149.29,19.49C-138.61,19.16 -127.94,18.76 -117.26,18.29C-106.58,17.82 -95.91,17.25 -85.23,16.65C-74.55,16.05 -63.87,15.36 -53.19,14.68C-42.51,14 -31.84,13.25 -21.16,12.57C-10.48,11.89 0.19,11.19 10.87,10.58C21.55,9.97 32.22,9.4 42.9,8.91C53.58,8.42 64.25,8 74.93,7.64C85.61,7.29 96.28,7 106.96,6.78C117.64,6.56 128.31,6.4 138.99,6.33C149.67,6.26 160.34,6.25 171.02,6.35C181.7,6.45 192.38,6.62 203.06,6.91C213.74,7.2 224.42,7.59 235.09,8.07C245.77,8.55 256.45,9.16 267.12,9.79C277.8,10.42 288.47,11.15 299.15,11.86C309.83,12.57 320.5,13.34 331.18,14.03C341.86,14.72 352.53,15.42 363.21,16.01C373.88,16.6 384.56,17.13 395.24,17.57C405.91,18.01 416.59,18.36 427.27,18.64C437.95,18.92 448.63,19.1 459.31,19.25C469.99,19.4 480.66,19.46 491.34,19.52C502.02,19.58 512.69,19.58 523.37,19.61C534.05,19.63 544.72,19.64 555.4,19.67C566.08,19.7 576.75,19.74 587.43,19.78C598.11,19.82 608.78,19.88 619.46,19.93C630.14,19.98 640.81,20.03 651.49,20.07C662.17,20.11 672.85,20.15 683.53,20.16C694.21,20.17 704.88,20.16 715.56,20.13C726.24,20.1 736.91,20.06 747.59,20C758.27,19.94 768.94,19.86 779.62,19.79C790.3,19.72 800.97,19.64 811.65,19.58C822.33,19.52 833,19.46 843.68,19.41C854.36,19.36 865.03,19.33 875.71,19.3C886.39,19.28 897.06,19.27 907.74,19.26C918.42,19.25 929.1,19.26 939.78,19.27C950.46,19.28 961.13,19.3 971.81,19.34C982.49,19.38 993.16,19.43 1003.84,19.49C1014.52,19.55 1025.19,19.64 1035.87,19.72C1046.55,19.81 1057.22,19.9 1067.9,20C1078.58,20.1 1089.25,20.2 1099.93,20.3C1110.61,20.39 1121.28,20.49 1131.96,20.57C1142.64,20.65 1153.31,20.72 1163.99,20.78Q1174.67,20.84 1196.03,20.94L1196.03,21.3Q1174.67,21.39 1163.99,21.45C1153.31,21.51 1142.64,21.58 1131.96,21.66C1121.28,21.74 1110.61,21.85 1099.93,21.94C1089.25,22.04 1078.58,22.13 1067.9,22.23C1057.22,22.32 1046.55,22.42 1035.87,22.51C1025.19,22.59 1014.52,22.68 1003.84,22.74C993.16,22.8 982.49,22.85 971.81,22.89C961.13,22.93 950.46,22.95 939.78,22.96C929.1,22.97 918.42,22.98 907.74,22.97C897.06,22.96 886.39,22.95 875.71,22.93C865.03,22.9 854.36,22.87 843.68,22.82C833,22.77 822.33,22.71 811.65,22.65C800.97,22.59 790.3,22.51 779.62,22.44C768.94,22.37 758.27,22.29 747.59,22.23C736.91,22.17 726.24,22.13 715.56,22.1C704.88,22.07 694.21,22.06 683.53,22.07C672.85,22.08 662.17,22.12 651.49,22.16C640.81,22.2 630.14,22.25 619.46,22.3C608.78,22.35 598.11,22.41 587.43,22.45C576.75,22.49 566.08,22.53 555.4,22.56C544.72,22.59 534.05,22.6 523.37,22.62C512.69,22.65 502.02,22.65 491.34,22.71C480.66,22.77 469.99,22.83 459.31,22.98C448.63,23.13 437.95,23.31 427.27,23.59C416.59,23.87 405.91,24.22 395.24,24.66C384.56,25.1 373.88,25.64 363.21,26.23C352.53,26.82 341.86,27.51 331.18,28.2C320.5,28.89 309.83,29.66 299.15,30.37C288.47,31.08 277.8,31.81 267.12,32.44C256.45,33.07 245.77,33.68 235.09,34.16C224.42,34.64 213.74,35.03 203.06,35.32C192.38,35.61 181.7,35.78 171.02,35.88C160.34,35.98 149.67,35.97 138.99,35.9C128.31,35.83 117.64,35.67 106.96,35.45C96.28,35.23 85.61,34.95 74.93,34.6C64.25,34.25 53.58,33.82 42.9,33.33C32.22,32.84 21.55,32.26 10.87,31.65C0.19,31.04 -10.48,30.34 -21.16,29.66C-31.84,28.98 -42.51,28.23 -53.19,27.55C-63.87,26.87 -74.55,26.18 -85.23,25.58C-95.91,24.98 -106.58,24.41 -117.26,23.94C-127.94,23.47 -138.61,23.07 -149.29,22.74Q-159.97,22.41 -181.32,21.96Z" style="vector-effect: none; stroke-width: 2px; stroke: rgb(128, 128, 128); stroke-opacity: 1; fill: rgb(128, 128, 128); fill-opacity: 1;"/><path class="box" d="M184.63,24.81V17.42M43.59,24.81V17.42H270.89V24.81ZM43.59,21.12H14.71M270.89,21.12H554.52" style="vector-effect: non-scaling-stroke; stroke-width: 2px; stroke: rgb(128, 128, 128); stroke-opacity: 1; fill: rgb(128, 128, 128); fill-opacity: 1;"/><path class="mean" d="M241.99,24.81V17.42" style="fill: none; vector-effect: non-scaling-stroke; stroke-width: 2px; stroke-dasharray: 4px, 2px; stroke: rgb(128, 128, 128); stroke-opacity: 1;"/></g></g><g class="scatterlayer mlayer"><g class="trace scatter tracea6a897" style="stroke-miterlimit: 2; opacity: 1;"><g class="fills"/><g class="errorbars"/><g class="lines"/><g class="points"><path class="point" transform="translate(201.82,21.12)" d="M2,0A2,2 0 1,1 0,-2A2,2 0 0,1 2,0Z" style="opacity: 1; stroke-width: 0px; fill: rgb(11, 121, 230); fill-opacity: 1;"/></g><g class="text"/></g><g class="trace scatter trace77a8c0" style="stroke-miterlimit: 2; opacity: 1;"><g class="fills"/><g class="errorbars"/><g class="lines"/><g class="points"><path class="point" transform="translate(835.72,21.12)" d="M2,0A2,2 0 1,1 0,-2A2,2 0 0,1 2,0Z" style="opacity: 1; stroke-width: 0px; fill: rgb(11, 121, 230); fill-opacity: 1;"/></g><g class="text"/></g><g class="trace scatter tracefc5e6d" style="stroke-miterlimit: 2; opacity: 1;"><g class="fills"/><g class="errorbars"/><g class="lines"/><g class="points"><path class="point" transform="translate(34.29,21.12)" d="M2,0A2,2 0 1,1 0,-2A2,2 0 0,1 2,0Z" style="opacity: 1; stroke-width: 0px; fill: rgb(11, 121, 230); fill-opacity: 1;"/></g><g class="text"/></g><g class="trace scatter trace4f8562" style="stroke-miterlimit: 2; opacity: 1;"><g class="fills"/><g class="errorbars"/><g class="lines"/><g class="points"><path class="point" transform="translate(299.48,21.12)" d="M2,0A2,2 0 1,1 0,-2A2,2 0 0,1 2,0Z" style="opacity: 1; stroke-width: 0px; fill: rgb(11, 121, 230); fill-opacity: 1;"/></g><g class="text"/></g><g class="trace scatter trace8f2ddc" style="stroke-miterlimit: 2; opacity: 1;"><g class="fills"/><g class="errorbars"/><g class="lines"/><g class="points"><path class="point" transform="translate(267.01,21.12)" d="M2,0A2,2 0 1,1 0,-2A2,2 0 0,1 2,0Z" style="opacity: 1; stroke-width: 0px; fill: rgb(11, 121, 230); fill-opacity: 1;"/></g><g class="text"/></g><g class="trace scatter trace1d7064" style="stroke-miterlimit: 2; opacity: 1;"><g class="fills"/><g class="errorbars"/><g class="lines"/><g class="points"><path class="point" transform="translate(243.58,21.12)" d="M2,0A2,2 0 1,1 0,-2A2,2 0 0,1 2,0Z" style="opacity: 1; stroke-width: 0px; fill: rgb(11, 121, 230); fill-opacity: 1;"/></g><g class="text"/></g><g class="trace scatter traceecbb54" style="stroke-miterlimit: 2; opacity: 1;"><g class="fills"/><g class="errorbars"/><g class="lines"/><g class="points"><path class="point" transform="translate(1000,21.12)" d="M2,0A2,2 0 1,1 0,-2A2,2 0 0,1 2,0Z" style="opacity: 1; stroke-width: 0px; fill: rgb(11, 121, 230); fill-opacity: 1;"/></g><g class="text"/></g><g class="trace scatter trace38b3b6" style="stroke-miterlimit: 2; opacity: 1;"><g class="fills"/><g class="errorbars"/><g class="lines"/><g class="points"><path class="point" transform="translate(274.76,21.12)" d="M2,0A2,2 0 1,1 0,-2A2,2 0 0,1 2,0Z" style="opacity: 1; stroke-width: 0px; fill: rgb(11, 121, 230); fill-opacity: 1;"/></g><g class="text"/></g><g class="trace scatter tracea30979" style="stroke-miterlimit: 2; opacity: 1;"><g class="fills"/><g class="errorbars"/><g class="lines"/><g class="points"><path class="point" transform="translate(14.71,21.12)" d="M2,0A2,2 0 1,1 0,-2A2,2 0 0,1 2,0Z" style="opacity: 1; stroke-width: 0px; fill: rgb(11, 121, 230); fill-opacity: 1;"/></g><g class="text"/></g><g class="trace scatter trace5601e2" style="stroke-miterlimit: 2; opacity: 1;"><g class="fills"/><g class="errorbars"/><g class="lines"/><g class="points"><path class="point" transform="translate(19.68,21.12)" d="M2,0A2,2 0 1,1 0,-2A2,2 0 0,1 2,0Z" style="opacity: 1; stroke-width: 0px; fill: rgb(11, 121, 230); fill-opacity: 1;"/></g><g class="text"/></g><g class="trace scatter trace64c6b5" style="stroke-miterlimit: 2; opacity: 1;"><g class="fills"/><g class="errorbars"/><g class="lines"/><g class="points"><path class="point" transform="translate(108.29,21.12)" d="M2,0A2,2 0 1,1 0,-2A2,2 0 0,1 2,0Z" style="opacity: 1; stroke-width: 0px; fill: rgb(11, 121, 230); fill-opacity: 1;"/></g><g class="text"/></g><g class="trace scatter trace3374fc" style="stroke-miterlimit: 2; opacity: 1;"><g class="fills"/><g class="errorbars"/><g class="lines"/><g class="points"><path class="point" transform="translate(191.98,21.12)" d="M2,0A2,2 0 1,1 0,-2A2,2 0 0,1 2,0Z" style="opacity: 1; stroke-width: 0px; fill: rgb(11, 121, 230); fill-opacity: 1;"/></g><g class="text"/></g><g class="trace scatter trace379950" style="stroke-miterlimit: 2; opacity: 1;"><g class="fills"/><g class="errorbars"/><g class="lines"/><g class="points"><path class="point" transform="translate(159.48,21.12)" d="M2,0A2,2 0 1,1 0,-2A2,2 0 0,1 2,0Z" style="opacity: 1; stroke-width: 0px; fill: rgb(11, 121, 230); fill-opacity: 1;"/></g><g class="text"/></g><g class="trace scatter trace84836a" style="stroke-miterlimit: 2; opacity: 1;"><g class="fills"/><g class="errorbars"/><g class="lines"/><g class="points"><path class="point" transform="translate(177.28,21.12)" d="M2,0A2,2 0 1,1 0,-2A2,2 0 0,1 2,0Z" style="opacity: 1; stroke-width: 0px; fill: rgb(11, 121, 230); fill-opacity: 1;"/></g><g class="text"/></g><g class="trace scatter trace142350" style="stroke-miterlimit: 2; opacity: 1;"><g class="fills"/><g class="errorbars"/><g class="lines"/><g class="points"><path class="point" transform="translate(195.61,21.12)" d="M2,0A2,2 0 1,1 0,-2A2,2 0 0,1 2,0Z" style="opacity: 1; stroke-width: 0px; fill: rgb(11, 121, 230); fill-opacity: 1;"/></g><g class="text"/></g><g class="trace scatter trace7e2ded" style="stroke-miterlimit: 2; opacity: 1;"><g class="fills"/><g class="errorbars"/><g class="lines"/><g class="points"><path class="point" transform="translate(157.99,21.12)" d="M2,0A2,2 0 1,1 0,-2A2,2 0 0,1 2,0Z" style="opacity: 1; stroke-width: 0px; fill: rgb(11, 121, 230); fill-opacity: 1;"/></g><g class="text"/></g><g class="trace scatter trace21fb1a" style="stroke-miterlimit: 2; opacity: 1;"><g class="fills"/><g class="errorbars"/><g class="lines"/><g class="points"><path class="point" transform="translate(52.88,21.12)" d="M2,0A2,2 0 1,1 0,-2A2,2 0 0,1 2,0Z" style="opacity: 1; stroke-width: 0px; fill: rgb(11, 121, 230); fill-opacity: 1;"/></g><g class="text"/></g><g class="trace scatter trace63f9e4" style="stroke-miterlimit: 2; opacity: 1;"><g class="fills"/><g class="errorbars"/><g class="lines"/><g class="points"><path class="point" transform="translate(554.52,21.12)" d="M2,0A2,2 0 1,1 0,-2A2,2 0 0,1 2,0Z" style="opacity: 1; stroke-width: 0px; fill: rgb(11, 121, 230); fill-opacity: 1;"/></g><g class="text"/></g><g class="trace scatter trace03b100" style="stroke-miterlimit: 2; opacity: 1;"><g class="fills"/><g class="errorbars"/><g class="lines"/><g class="points"><path class="point" transform="translate(29.92,21.12)" d="M2,0A2,2 0 1,1 0,-2A2,2 0 0,1 2,0Z" style="opacity: 1; stroke-width: 0px; fill: rgb(11, 121, 230); fill-opacity: 1;"/></g><g class="text"/></g><g class="trace scatter trace8647f4" style="stroke-miterlimit: 2; opacity: 1;"><g class="fills"/><g class="errorbars"/><g class="lines"/><g class="points"><path class="point" transform="translate(20.82,21.12)" d="M2,0A2,2 0 1,1 0,-2A2,2 0 0,1 2,0Z" style="opacity: 1; stroke-width: 0px; fill: rgb(11, 121, 230); fill-opacity: 1;"/></g><g class="text"/></g></g></g><g class="overplot"/><path class="xlines-above crisp" d="M0,0" style="fill: none;"/><path class="ylines-above crisp" d="M0,0" style="fill: none;"/><g class="overlines-above"/><g class="xaxislayer-above"><g class="x2tick"><text text-anchor="middle" x="0" y="172.61538461538464" transform="translate(84.98,0)" style="font-family: 'Lucida Grande', 'Open Sans', verdana, arial, sans-serif; font-size: 9px; fill: rgb(0, 0, 0); fill-opacity: 0.5; white-space: pre; opacity: 1;">0</text></g><g class="x2tick"><text text-anchor="middle" x="0" y="172.61538461538464" style="font-family: 'Lucida Grande', 'Open Sans', verdana, arial, sans-serif; font-size: 9px; fill: rgb(0, 0, 0); fill-opacity: 0.5; white-space: pre; opacity: 1;" transform="translate(238.15,0)">100k</text></g><g class="x2tick"><text text-anchor="middle" x="0" y="172.61538461538464" style="font-family: 'Lucida Grande', 'Open Sans', verdana, arial, sans-serif; font-size: 9px; fill: rgb(0, 0, 0); fill-opacity: 0.5; white-space: pre; opacity: 1;" transform="translate(391.32,0)">200k</text></g><g class="x2tick"><text text-anchor="middle" x="0" y="172.61538461538464" style="font-family: 'Lucida Grande', 'Open Sans', verdana, arial, sans-serif; font-size: 9px; fill: rgb(0, 0, 0); fill-opacity: 0.5; white-space: pre; opacity: 1;" transform="translate(544.49,0)">300k</text></g><g class="x2tick"><text text-anchor="middle" x="0" y="172.61538461538464" style="font-family: 'Lucida Grande', 'Open Sans', verdana, arial, sans-serif; font-size: 9px; fill: rgb(0, 0, 0); fill-opacity: 0.5; white-space: pre; opacity: 1;" transform="translate(697.67,0)">400k</text></g><g class="x2tick"><text text-anchor="middle" x="0" y="172.61538461538464" style="font-family: 'Lucida Grande', 'Open Sans', verdana, arial, sans-serif; font-size: 9px; fill: rgb(0, 0, 0); fill-opacity: 0.5; white-space: pre; opacity: 1;" transform="translate(850.84,0)">500k</text></g><g class="x2tick"><text text-anchor="middle" x="0" y="172.61538461538464" style="font-family: 'Lucida Grande', 'Open Sans', verdana, arial, sans-serif; font-size: 9px; fill: rgb(0, 0, 0); fill-opacity: 0.5; white-space: pre; opacity: 1;" transform="translate(1004.01,0)">600k</text></g></g><g class="yaxislayer-above"><g class="y2tick"><text text-anchor="end" x="79" y="3.15" transform="translate(0,141.5046153846154)" style="font-family: 'Lucida Grande', 'Open Sans', verdana, arial, sans-serif; font-size: 9px; fill: rgb(0, 0, 0); fill-opacity: 0.5; white-space: pre; opacity: 1;">Occurrences  </text></g></g><g class="overaxes-above"/></g><g class="subplot x3y3"><g class="layer-subplot"><g class="shapelayer"/><g class="imagelayer"/></g><g class="minor-gridlayer"><g class="x3"/><g class="y3"/></g><g class="gridlayer"><g class="x3"><path class="x3grid crisp" transform="translate(283.98,0)" d="M0,190.76923076923077v42.230769230769226" style="stroke: rgb(0, 0, 0); stroke-opacity: 0.1; stroke-width: 1px;"/><path class="x3grid crisp" transform="translate(482.99,0)" d="M0,190.76923076923077v42.230769230769226" style="stroke: rgb(0, 0, 0); stroke-opacity: 0.1; stroke-width: 1px;"/><path class="x3grid crisp" transform="translate(681.99,0)" d="M0,190.76923076923077v42.230769230769226" style="stroke: rgb(0, 0, 0); stroke-opacity: 0.1; stroke-width: 1px;"/><path class="x3grid crisp" transform="translate(881,0)" d="M0,190.76923076923077v42.230769230769226" style="stroke: rgb(0, 0, 0); stroke-opacity: 0.1; stroke-width: 1px;"/><path class="x3grid crisp" transform="translate(1080,0)" d="M0,190.76923076923077v42.230769230769226" style="stroke: rgb(0, 0, 0); stroke-opacity: 0.1; stroke-width: 1px;"/></g><g class="y3"><path class="y3grid crisp" transform="translate(0,211.88923076923078)" d="M80,0h1005" style="stroke: rgb(0, 0, 0); stroke-opacity: 0.1; stroke-width: 1px;"/></g></g><g class="zerolinelayer"><path class="x3zl zl crisp" transform="translate(84.98,0)" d="M0,190.76923076923077v42.230769230769226" style="stroke: rgb(0, 0, 0); stroke-opacity: 0.1; stroke-width: 2px;"/></g><path class="xlines-below"/><path class="ylines-below"/><g class="overlines-below"/><g class="xaxislayer-below"/><g class="yaxislayer-below"/><g class="overaxes-below"/><g class="plot" transform="translate(80,190.76923076923077)" clip-path="url(#clip6a954ex3y3plot)"><g class="violinlayer mlayer"><g class="trace violins" style="opacity: 0.5;"><path class="violin" d="M-16.12,20.27Q-13.7,19.82 -12.5,19.49C-11.28,19.16 -10.07,18.76 -8.87,18.29C-7.65,17.81 -6.44,17.25 -5.24,16.65C-4.02,16.04 -2.82,15.36 -1.61,14.68C-0.39,14 0.81,13.26 2.02,12.57C3.22,11.89 4.42,11.19 5.64,10.58C6.84,9.98 8.05,9.4 9.27,8.91C10.47,8.43 11.68,8 12.9,7.64C14.1,7.29 15.31,7 16.53,6.78C17.73,6.56 18.94,6.4 20.15,6.33C21.36,6.26 22.57,6.25 23.78,6.35C24.99,6.45 26.21,6.63 27.41,6.91C28.63,7.2 29.85,7.6 31.04,8.07C32.26,8.55 33.46,9.17 34.66,9.79C35.88,10.43 37.08,11.16 38.29,11.86C39.5,12.57 40.7,13.33 41.92,14.03C43.12,14.72 44.33,15.41 45.55,16.01C46.74,16.59 47.95,17.13 49.17,17.57C50.37,18 51.58,18.36 52.8,18.64C54,18.92 55.22,19.1 56.43,19.25C57.64,19.4 58.85,19.46 60.06,19.52C61.27,19.58 62.47,19.59 63.68,19.61C64.89,19.64 66.1,19.64 67.31,19.67C68.52,19.7 69.73,19.74 70.94,19.78C72.15,19.82 73.36,19.88 74.57,19.93C75.78,19.98 76.98,20.03 78.19,20.07C79.4,20.11 80.61,20.15 81.82,20.16C83.03,20.17 84.24,20.16 85.45,20.13C86.66,20.1 87.87,20.06 89.08,20C90.29,19.94 91.49,19.86 92.7,19.79C93.91,19.72 95.12,19.64 96.33,19.58C97.54,19.52 98.75,19.46 99.96,19.41C101.17,19.36 102.38,19.33 103.59,19.3C104.8,19.28 106,19.27 107.21,19.26C108.42,19.25 109.63,19.26 110.84,19.27C112.05,19.28 113.26,19.3 114.47,19.34C115.68,19.38 116.89,19.43 118.1,19.49C119.31,19.55 120.51,19.64 121.72,19.72C122.93,19.81 124.14,19.9 125.35,20C126.56,20.1 127.77,20.2 128.98,20.3C130.19,20.39 131.4,20.49 132.61,20.57C133.82,20.65 135.02,20.72 136.23,20.78Q137.44,20.84 139.86,20.94L139.86,21.3Q137.44,21.39 136.23,21.45C135.02,21.51 133.82,21.58 132.61,21.66C131.4,21.74 130.19,21.85 128.98,21.94C127.77,22.04 126.56,22.13 125.35,22.23C124.14,22.32 122.93,22.42 121.72,22.51C120.51,22.59 119.31,22.68 118.1,22.74C116.89,22.8 115.68,22.85 114.47,22.89C113.26,22.93 112.05,22.95 110.84,22.96C109.63,22.97 108.42,22.98 107.21,22.97C106,22.96 104.8,22.95 103.59,22.93C102.38,22.9 101.17,22.87 99.96,22.82C98.75,22.77 97.54,22.71 96.33,22.65C95.12,22.59 93.91,22.51 92.7,22.44C91.49,22.37 90.29,22.29 89.08,22.23C87.87,22.17 86.66,22.13 85.45,22.1C84.24,22.07 83.03,22.06 81.82,22.07C80.61,22.08 79.4,22.12 78.19,22.16C76.98,22.2 75.78,22.25 74.57,22.3C73.36,22.35 72.15,22.41 70.94,22.45C69.73,22.49 68.52,22.53 67.31,22.56C66.1,22.59 64.89,22.59 63.68,22.62C62.47,22.64 61.27,22.65 60.06,22.71C58.85,22.77 57.64,22.83 56.43,22.98C55.22,23.13 54,23.31 52.8,23.59C51.58,23.87 50.37,24.23 49.17,24.66C47.95,25.1 46.74,25.65 45.55,26.23C44.33,26.83 43.12,27.51 41.92,28.2C40.7,28.89 39.5,29.66 38.29,30.37C37.08,31.07 35.88,31.8 34.66,32.44C33.46,33.06 32.26,33.68 31.04,34.16C29.85,34.63 28.63,35.03 27.41,35.32C26.21,35.6 24.99,35.78 23.78,35.88C22.57,35.98 21.36,35.97 20.15,35.9C18.94,35.83 17.73,35.66 16.53,35.45C15.32,35.23 14.1,34.95 12.9,34.6C11.68,34.24 10.47,33.82 9.27,33.33C8.05,32.83 6.84,32.26 5.64,31.65C4.42,31.03 3.22,30.34 2.02,29.66C0.81,28.97 -0.39,28.23 -1.61,27.55C-2.82,26.87 -4.02,26.19 -5.24,25.58C-6.44,24.98 -7.65,24.42 -8.87,23.94C-10.07,23.47 -11.28,23.07 -12.5,22.74Q-13.7,22.41 -16.12,21.96Z" style="vector-effect: none; stroke-width: 2px; stroke: rgb(128, 128, 128); stroke-opacity: 1; fill: rgb(128, 128, 128); fill-opacity: 1;"/><path class="box" d="M25.32,24.81V17.42M9.35,24.81V17.42H35.09V24.81ZM9.35,21.12H6.08M35.09,21.12H67.21" style="vector-effect: non-scaling-stroke; stroke-width: 2px; stroke: rgb(128, 128, 128); stroke-opacity: 1; fill: rgb(128, 128, 128); fill-opacity: 1;"/><path class="mean" d="M31.82,24.81V17.42" style="fill: none; vector-effect: non-scaling-stroke; stroke-width: 2px; stroke-dasharray: 4px, 2px; stroke: rgb(128, 128, 128); stroke-opacity: 1;"/></g></g><g class="scatterlayer mlayer"><g class="trace scatter traceeb5d0f" style="stroke-miterlimit: 2; opacity: 1;"><g class="fills"/><g class="errorbars"/><g class="lines"/><g class="points"><path class="point" transform="translate(27.27,21.12)" d="M2,0A2,2 0 1,1 0,-2A2,2 0 0,1 2,0Z" style="opacity: 1; stroke-width: 0px; fill: rgb(11, 121, 230); fill-opacity: 1;"/></g><g class="text"/></g><g class="trace scatter trace56c531" style="stroke-miterlimit: 2; opacity: 1;"><g class="fills"/><g class="errorbars"/><g class="lines"/><g class="points"><path class="point" transform="translate(99.06,21.12)" d="M2,0A2,2 0 1,1 0,-2A2,2 0 0,1 2,0Z" style="opacity: 1; stroke-width: 0px; fill: rgb(11, 121, 230); fill-opacity: 1;"/></g><g class="text"/></g><g class="trace scatter trace28821e" style="stroke-miterlimit: 2; opacity: 1;"><g class="fills"/><g class="errorbars"/><g class="lines"/><g class="points"><path class="point" transform="translate(8.3,21.12)" d="M2,0A2,2 0 1,1 0,-2A2,2 0 0,1 2,0Z" style="opacity: 1; stroke-width: 0px; fill: rgb(11, 121, 230); fill-opacity: 1;"/></g><g class="text"/></g><g class="trace scatter trace8e6782" style="stroke-miterlimit: 2; opacity: 1;"><g class="fills"/><g class="errorbars"/><g class="lines"/><g class="points"><path class="point" transform="translate(38.33,21.12)" d="M2,0A2,2 0 1,1 0,-2A2,2 0 0,1 2,0Z" style="opacity: 1; stroke-width: 0px; fill: rgb(11, 121, 230); fill-opacity: 1;"/></g><g class="text"/></g><g class="trace scatter trace89211f" style="stroke-miterlimit: 2; opacity: 1;"><g class="fills"/><g class="errorbars"/><g class="lines"/><g class="points"><path class="point" transform="translate(34.65,21.12)" d="M2,0A2,2 0 1,1 0,-2A2,2 0 0,1 2,0Z" style="opacity: 1; stroke-width: 0px; fill: rgb(11, 121, 230); fill-opacity: 1;"/></g><g class="text"/></g><g class="trace scatter trace7bb4f0" style="stroke-miterlimit: 2; opacity: 1;"><g class="fills"/><g class="errorbars"/><g class="lines"/><g class="points"><path class="point" transform="translate(32,21.12)" d="M2,0A2,2 0 1,1 0,-2A2,2 0 0,1 2,0Z" style="opacity: 1; stroke-width: 0px; fill: rgb(11, 121, 230); fill-opacity: 1;"/></g><g class="text"/></g><g class="trace scatter tracec2da34" style="stroke-miterlimit: 2; opacity: 1;"><g class="fills"/><g class="errorbars"/><g class="lines"/><g class="points"><path class="point" transform="translate(117.66,21.12)" d="M2,0A2,2 0 1,1 0,-2A2,2 0 0,1 2,0Z" style="opacity: 1; stroke-width: 0px; fill: rgb(11, 121, 230); fill-opacity: 1;"/></g><g class="text"/></g><g class="trace scatter trace6ffeab" style="stroke-miterlimit: 2; opacity: 1;"><g class="fills"/><g class="errorbars"/><g class="lines"/><g class="points"><path class="point" transform="translate(35.53,21.12)" d="M2,0A2,2 0 1,1 0,-2A2,2 0 0,1 2,0Z" style="opacity: 1; stroke-width: 0px; fill: rgb(11, 121, 230); fill-opacity: 1;"/></g><g class="text"/></g><g class="trace scatter tracebef0ca" style="stroke-miterlimit: 2; opacity: 1;"><g class="fills"/><g class="errorbars"/><g class="lines"/><g class="points"><path class="point" transform="translate(6.08,21.12)" d="M2,0A2,2 0 1,1 0,-2A2,2 0 0,1 2,0Z" style="opacity: 1; stroke-width: 0px; fill: rgb(11, 121, 230); fill-opacity: 1;"/></g><g class="text"/></g><g class="trace scatter trace9f1087" style="stroke-miterlimit: 2; opacity: 1;"><g class="fills"/><g class="errorbars"/><g class="lines"/><g class="points"><path class="point" transform="translate(6.64,21.12)" d="M2,0A2,2 0 1,1 0,-2A2,2 0 0,1 2,0Z" style="opacity: 1; stroke-width: 0px; fill: rgb(11, 121, 230); fill-opacity: 1;"/></g><g class="text"/></g><g class="trace scatter trace9bea36" style="stroke-miterlimit: 2; opacity: 1;"><g class="fills"/><g class="errorbars"/><g class="lines"/><g class="points"><path class="point" transform="translate(16.68,21.12)" d="M2,0A2,2 0 1,1 0,-2A2,2 0 0,1 2,0Z" style="opacity: 1; stroke-width: 0px; fill: rgb(11, 121, 230); fill-opacity: 1;"/></g><g class="text"/></g><g class="trace scatter trace16c208" style="stroke-miterlimit: 2; opacity: 1;"><g class="fills"/><g class="errorbars"/><g class="lines"/><g class="points"><path class="point" transform="translate(26.15,21.12)" d="M2,0A2,2 0 1,1 0,-2A2,2 0 0,1 2,0Z" style="opacity: 1; stroke-width: 0px; fill: rgb(11, 121, 230); fill-opacity: 1;"/></g><g class="text"/></g><g class="trace scatter trace062c65" style="stroke-miterlimit: 2; opacity: 1;"><g class="fills"/><g class="errorbars"/><g class="lines"/><g class="points"><path class="point" transform="translate(22.47,21.12)" d="M2,0A2,2 0 1,1 0,-2A2,2 0 0,1 2,0Z" style="opacity: 1; stroke-width: 0px; fill: rgb(11, 121, 230); fill-opacity: 1;"/></g><g class="text"/></g><g class="trace scatter trace10877a" style="stroke-miterlimit: 2; opacity: 1;"><g class="fills"/><g class="errorbars"/><g class="lines"/><g class="points"><path class="point" transform="translate(24.49,21.12)" d="M2,0A2,2 0 1,1 0,-2A2,2 0 0,1 2,0Z" style="opacity: 1; stroke-width: 0px; fill: rgb(11, 121, 230); fill-opacity: 1;"/></g><g class="text"/></g><g class="trace scatter trace132d83" style="stroke-miterlimit: 2; opacity: 1;"><g class="fills"/><g class="errorbars"/><g class="lines"/><g class="points"><path class="point" transform="translate(26.56,21.12)" d="M2,0A2,2 0 1,1 0,-2A2,2 0 0,1 2,0Z" style="opacity: 1; stroke-width: 0px; fill: rgb(11, 121, 230); fill-opacity: 1;"/></g><g class="text"/></g><g class="trace scatter trace4160fa" style="stroke-miterlimit: 2; opacity: 1;"><g class="fills"/><g class="errorbars"/><g class="lines"/><g class="points"><path class="point" transform="translate(22.3,21.12)" d="M2,0A2,2 0 1,1 0,-2A2,2 0 0,1 2,0Z" style="opacity: 1; stroke-width: 0px; fill: rgb(11, 121, 230); fill-opacity: 1;"/></g><g class="text"/></g><g class="trace scatter trace326d50" style="stroke-miterlimit: 2; opacity: 1;"><g class="fills"/><g class="errorbars"/><g class="lines"/><g class="points"><path class="point" transform="translate(10.4,21.12)" d="M2,0A2,2 0 1,1 0,-2A2,2 0 0,1 2,0Z" style="opacity: 1; stroke-width: 0px; fill: rgb(11, 121, 230); fill-opacity: 1;"/></g><g class="text"/></g><g class="trace scatter trace85c2ee" style="stroke-miterlimit: 2; opacity: 1;"><g class="fills"/><g class="errorbars"/><g class="lines"/><g class="points"><path class="point" transform="translate(67.21,21.12)" d="M2,0A2,2 0 1,1 0,-2A2,2 0 0,1 2,0Z" style="opacity: 1; stroke-width: 0px; fill: rgb(11, 121, 230); fill-opacity: 1;"/></g><g class="text"/></g><g class="trace scatter trace9dba28" style="stroke-miterlimit: 2; opacity: 1;"><g class="fills"/><g class="errorbars"/><g class="lines"/><g class="points"><path class="point" transform="translate(7.8,21.12)" d="M2,0A2,2 0 1,1 0,-2A2,2 0 0,1 2,0Z" style="opacity: 1; stroke-width: 0px; fill: rgb(11, 121, 230); fill-opacity: 1;"/></g><g class="text"/></g><g class="trace scatter traceb5f6ee" style="stroke-miterlimit: 2; opacity: 1;"><g class="fills"/><g class="errorbars"/><g class="lines"/><g class="points"><path class="point" transform="translate(6.77,21.12)" d="M2,0A2,2 0 1,1 0,-2A2,2 0 0,1 2,0Z" style="opacity: 1; stroke-width: 0px; fill: rgb(11, 121, 230); fill-opacity: 1;"/></g><g class="text"/></g></g></g><g class="overplot"/><path class="xlines-above crisp" d="M0,0" style="fill: none;"/><path class="ylines-above crisp" d="M0,0" style="fill: none;"/><g class="overlines-above"/><g class="xaxislayer-above"><g class="x3tick"><text text-anchor="middle" x="0" y="243" transform="translate(84.98,0)" style="font-family: 'Lucida Grande', 'Open Sans', verdana, arial, sans-serif; font-size: 9px; fill: rgb(0, 0, 0); fill-opacity: 0.5; white-space: pre; opacity: 1;">0%</text></g><g class="x3tick"><text text-anchor="middle" x="0" y="243" style="font-family: 'Lucida Grande', 'Open Sans', verdana, arial, sans-serif; font-size: 9px; fill: rgb(0, 0, 0); fill-opacity: 0.5; white-space: pre; opacity: 1;" transform="translate(283.98,0)">20%</text></g><g class="x3tick"><text text-anchor="middle" x="0" y="243" style="font-family: 'Lucida Grande', 'Open Sans', verdana, arial, sans-serif; font-size: 9px; fill: rgb(0, 0, 0); fill-opacity: 0.5; white-space: pre; opacity: 1;" transform="translate(482.99,0)">40%</text></g><g class="x3tick"><text text-anchor="middle" x="0" y="243" style="font-family: 'Lucida Grande', 'Open Sans', verdana, arial, sans-serif; font-size: 9px; fill: rgb(0, 0, 0); fill-opacity: 0.5; white-space: pre; opacity: 1;" transform="translate(681.99,0)">60%</text></g><g class="x3tick"><text text-anchor="middle" x="0" y="243" style="font-family: 'Lucida Grande', 'Open Sans', verdana, arial, sans-serif; font-size: 9px; fill: rgb(0, 0, 0); fill-opacity: 0.5; white-space: pre; opacity: 1;" transform="translate(881,0)">80%</text></g><g class="x3tick"><text text-anchor="middle" x="0" y="243" style="font-family: 'Lucida Grande', 'Open Sans', verdana, arial, sans-serif; font-size: 9px; fill: rgb(0, 0, 0); fill-opacity: 0.5; white-space: pre; opacity: 1;" transform="translate(1080,0)">100%</text></g></g><g class="yaxislayer-above"><g class="y3tick"><text text-anchor="end" x="79" y="3.15" transform="translate(0,211.88923076923078)" style="font-family: 'Lucida Grande', 'Open Sans', verdana, arial, sans-serif; font-size: 9px; fill: rgb(0, 0, 0); fill-opacity: 0.5; white-space: pre; opacity: 1;">% of all reads  </text></g></g><g class="overaxes-above"/></g></g><g class="polarlayer"/><g class="smithlayer"/><g class="ternarylayer"/><g class="geolayer"/><g class="funnelarealayer"/><g class="pielayer"/><g class="iciclelayer"/><g class="treemaplayer"/><g class="sunburstlayer"/><g class="glimages"/><defs id="topdefs-6a954e"><g class="clips"/></defs><g class="layer-above"><g class="imagelayer"/><g class="shapelayer"/></g><g class="infolayer"><g class="g-gtitle"/><g class="g-xtitle"/><g class="g-x2title"/><g class="g-x3title"/><g class="g-ytitle"/><g class="g-y2title"/><g class="g-y3title"/></g></svg>